<?xml version="1.0" encoding="UTF-8"?>
<svg xmlns="http://www.w3.org/2000/svg" viewBox="0 0 800 500" width="800" height="500">
  <defs>
    <style>
      text { font-family: 'Space Grotesk', system-ui, -apple-system, sans-serif; }
    </style>
  </defs>
  <rect width="800" height="500" fill="#0A0A0A"/>

  <!-- Layer 1: Directive -->
  <rect x="40" y="20" width="720" height="120" rx="16" fill="#111111" stroke="#2D2D2D" stroke-width="1.5"/>
  <rect x="40" y="20" width="720" height="4" rx="2" fill="#E07850"/>
  <text x="70" y="52" fill="#E07850" font-size="13" font-weight="700" letter-spacing="2">DIRECTIVE LAYER</text>
  <rect x="220" y="60" width="360" height="60" rx="9" fill="#1A1A1A" stroke="#2D2D2D" stroke-width="1"/>
  <text x="400" y="85" fill="#F5F5F0" font-size="15" font-weight="600" text-anchor="middle">ads/SKILL.md</text>
  <text x="400" y="105" fill="#888888" font-size="11" text-anchor="middle">Orchestrator · Routing · Quality Gates</text>

  <!-- Arrow Layer 1 to 2 -->
  <line x1="400" y1="140" x2="400" y2="170" stroke="#E07850" stroke-width="1.5"/>
  <polygon points="394,167 400,177 406,167" fill="#E07850"/>

  <!-- Layer 2: Orchestration -->
  <rect x="40" y="180" width="720" height="130" rx="16" fill="#111111" stroke="#2D2D2D" stroke-width="1.5"/>
  <rect x="40" y="180" width="720" height="4" rx="2" fill="#FF6B35"/>
  <text x="70" y="212" fill="#FF6B35" font-size="13" font-weight="700" letter-spacing="2">ORCHESTRATION LAYER</text>
  <g>
    <rect x="60" y="230" width="105" height="60" rx="6" fill="#1A1A1A" stroke="#2D2D2D" stroke-width="1"/>
    <text x="112" y="255" fill="#F5F5F0" font-size="10" font-weight="600" text-anchor="middle">audit-google</text>
    <text x="112" y="275" fill="#6a6a6a" font-size="9" text-anchor="middle">80 checks</text>
  </g>
  <g>
    <rect x="177" y="230" width="105" height="60" rx="6" fill="#1A1A1A" stroke="#2D2D2D" stroke-width="1"/>
    <text x="229" y="255" fill="#F5F5F0" font-size="10" font-weight="600" text-anchor="middle">audit-meta</text>
    <text x="229" y="275" fill="#6a6a6a" font-size="9" text-anchor="middle">50 checks</text>
  </g>
  <g>
    <rect x="294" y="230" width="105" height="60" rx="6" fill="#1A1A1A" stroke="#2D2D2D" stroke-width="1"/>
    <text x="346" y="255" fill="#F5F5F0" font-size="10" font-weight="600" text-anchor="middle">audit-creative</text>
    <text x="346" y="275" fill="#6a6a6a" font-size="9" text-anchor="middle">21+ checks</text>
  </g>
  <g>
    <rect x="411" y="230" width="105" height="60" rx="6" fill="#1A1A1A" stroke="#2D2D2D" stroke-width="1"/>
    <text x="463" y="255" fill="#F5F5F0" font-size="10" font-weight="600" text-anchor="middle">audit-tracking</text>
    <text x="463" y="275" fill="#6a6a6a" font-size="9" text-anchor="middle">8+ checks</text>
  </g>
  <g>
    <rect x="528" y="230" width="105" height="60" rx="6" fill="#1A1A1A" stroke="#2D2D2D" stroke-width="1"/>
    <text x="580" y="255" fill="#F5F5F0" font-size="10" font-weight="600" text-anchor="middle">audit-budget</text>
    <text x="580" y="275" fill="#6a6a6a" font-size="9" text-anchor="middle">24 checks</text>
  </g>
  <g>
    <rect x="645" y="230" width="105" height="60" rx="6" fill="#1A1A1A" stroke="#2D2D2D" stroke-width="1"/>
    <text x="697" y="255" fill="#F5F5F0" font-size="10" font-weight="600" text-anchor="middle">audit-compliance</text>
    <text x="697" y="275" fill="#6a6a6a" font-size="9" text-anchor="middle">18+ checks</text>
  </g>

  <!-- Arrow Layer 2 to 3 -->
  <line x1="400" y1="310" x2="400" y2="340" stroke="#E07850" stroke-width="1.5"/>
  <polygon points="394,337 400,347 406,337" fill="#E07850"/>

  <!-- Layer 3: Execution -->
  <rect x="40" y="350" width="720" height="120" rx="16" fill="#111111" stroke="#2D2D2D" stroke-width="1.5"/>
  <rect x="40" y="350" width="720" height="4" rx="2" fill="#888888"/>
  <text x="70" y="382" fill="#888888" font-size="13" font-weight="700" letter-spacing="2">EXECUTION LAYER</text>
  <g>
    <rect x="80" y="400" width="190" height="50" rx="9" fill="#1A1A1A" stroke="#2D2D2D" stroke-width="1"/>
    <text x="175" y="422" fill="#F5F5F0" font-size="13" font-weight="600" text-anchor="middle">25 References</text>
    <text x="175" y="440" fill="#6a6a6a" font-size="10" text-anchor="middle">On-demand knowledge</text>
  </g>
  <g>
    <rect x="305" y="400" width="190" height="50" rx="9" fill="#1A1A1A" stroke="#2D2D2D" stroke-width="1"/>
    <text x="400" y="422" fill="#F5F5F0" font-size="13" font-weight="600" text-anchor="middle">19 Sub-Skills</text>
    <text x="400" y="440" fill="#6a6a6a" font-size="10" text-anchor="middle">Specialized analysis</text>
  </g>
  <g>
    <rect x="530" y="400" width="190" height="50" rx="9" fill="#1A1A1A" stroke="#2D2D2D" stroke-width="1"/>
    <text x="625" y="422" fill="#F5F5F0" font-size="13" font-weight="600" text-anchor="middle">12 Templates</text>
    <text x="625" y="440" fill="#6a6a6a" font-size="10" text-anchor="middle">Industry-specific</text>
  </g>
</svg>